<svg width="18" height="29" viewBox="0 0 18 29" fill="none" xmlns="http://www.w3.org/2000/svg">
<mask id="path-1-inside-1_4_60" fill="white">
<path fill-rule="evenodd" clip-rule="evenodd" d="M0 28.2404L17.25 14.1202L0 0V5.64807L10.35 14.1202L0 22.5923V28.2404Z"/>
</mask>
<path d="M17.25 14.1202L17.8834 14.894L18.8287 14.1202L17.8834 13.3464L17.25 14.1202ZM0 28.2404H-1L-1 30.3512L0.633413 29.0142L0 28.2404ZM0 0L0.633413 -0.773813L-1 -2.11086V0L0 0ZM0 5.64807H-1V6.12181L-0.633413 6.42189L0 5.64807ZM10.35 14.1202L10.9834 14.894L11.9288 14.1202L10.9834 13.3464L10.35 14.1202ZM0 22.5923L-0.633413 21.8185L-1 22.1186V22.5923H0ZM16.6166 13.3464L-0.633413 27.4666L0.633413 29.0142L17.8834 14.894L16.6166 13.3464ZM-0.633413 0.773813L16.6166 14.894L17.8834 13.3464L0.633413 -0.773813L-0.633413 0.773813ZM1 5.64807V0L-1 0V5.64807H1ZM-0.633413 6.42189L9.71659 14.894L10.9834 13.3464L0.633413 4.87426L-0.633413 6.42189ZM9.71659 13.3464L-0.633413 21.8185L0.633413 23.3661L10.9834 14.894L9.71659 13.3464ZM1 28.2404V22.5923H-1V28.2404H1Z" fill="white" mask="url(#path-1-inside-1_4_60)"/>
</svg>
