<svg width="18" height="29" viewBox="0 0 18 29" fill="none" xmlns="http://www.w3.org/2000/svg">
<mask id="path-1-inside-1_2_11" fill="white">
<path fill-rule="evenodd" clip-rule="evenodd" d="M18 3.8147e-06L0.75 14.1202L18 28.2404V22.5923L7.64999 14.1202L18 5.64808V3.8147e-06Z"/>
</mask>
<path d="M0.75 14.1202L0.116586 13.3464L-0.828746 14.1202L0.116586 14.894L0.75 14.1202ZM18 3.8147e-06H19L19 -2.11086L17.3666 -0.773809L18 3.8147e-06ZM18 28.2404L17.3666 29.0142L19 30.3513V28.2404H18ZM18 22.5923H19V22.1186L18.6334 21.8185L18 22.5923ZM7.64999 14.1202L7.01658 13.3464L6.07125 14.1202L7.01658 14.894L7.64999 14.1202ZM18 5.64808L18.6334 6.42189L19 6.12181V5.64808H18ZM1.38341 14.894L18.6334 0.773817L17.3666 -0.773809L0.116586 13.3464L1.38341 14.894ZM18.6334 27.4666L1.38341 13.3464L0.116586 14.894L17.3666 29.0142L18.6334 27.4666ZM17 22.5923V28.2404H19V22.5923H17ZM18.6334 21.8185L8.28341 13.3464L7.01658 14.894L17.3666 23.3661L18.6334 21.8185ZM8.28341 14.894L18.6334 6.42189L17.3666 4.87426L7.01658 13.3464L8.28341 14.894ZM17 3.8147e-06V5.64808H19V3.8147e-06H17Z" fill="white" mask="url(#path-1-inside-1_2_11)"/>
</svg>
